HIERARCHY
ROOT Root
{
  OFFSET 0.0 0.0 0.0
  CHANNELS 6 Xposition Yposition Zposition Zrotation Yrotation Xrotation
  JOINT Hips
  {
    OFFSET 0.0 100.0 0.0
    CHANNELS 6 Xposition Yposition Zposition Zrotation Yrotation Xrotation
    JOINT Spine1
    {
      OFFSET -0.013727 5.003763 -0.053727
      CHANNELS 3 Zrotation Yrotation Xrotation
      JOINT Spine2
      {
        OFFSET -0.0 7.125301 -0.029825
        CHANNELS 3 Zrotation Yrotation Xrotation
        JOINT Chest
        {
          OFFSET -1e-06 7.550063 -0.815971
          CHANNELS 3 Zrotation Yrotation Xrotation
          JOINT Neck1
          {
            OFFSET -0.181677 26.311295 -0.553348
            CHANNELS 3 Zrotation Yrotation Xrotation
            JOINT Neck2
            {
              OFFSET -3e-06 7.709397 2.302585
              CHANNELS 3 Zrotation Yrotation Xrotation
              JOINT Head
              {
                OFFSET -5e-06 6.128916 1.953709
                CHANNELS 3 Zrotation Yrotation Xrotation
                JOINT HeadEnd
                {
                  OFFSET 0.003598 16.065403 -1.835379
                  CHANNELS 3 Zrotation Yrotation Xrotation
                }
                JOINT Jaw
                {
                  OFFSET 0.002637 0.475592 3.094941
                  CHANNELS 3 Zrotation Yrotation Xrotation
                }
                JOINT LeftEye
                {
                  OFFSET 3.206381 5.380205 7.586883
                  CHANNELS 3 Zrotation Yrotation Xrotation
                }
                JOINT RightEye
                {
                  OFFSET -3.22244 5.361869 7.558234
                  CHANNELS 3 Zrotation Yrotation Xrotation
                }
              }
            }
          }
          JOINT LeftShoulder
          {
            OFFSET 1.621652 23.237164 5.113413
            CHANNELS 3 Zrotation Yrotation Xrotation
            JOINT LeftArm
            {
              OFFSET 14.919846 2e-06 -5.502326
              CHANNELS 3 Zrotation Yrotation Xrotation
              JOINT LeftForeArm
              {
                OFFSET 28.739307 0.0 -0.002588
                CHANNELS 3 Zrotation Yrotation Xrotation
                JOINT LeftHand
                {
                  OFFSET 27.093981 -1e-06 0.002609
                  CHANNELS 3 Zrotation Yrotation Xrotation
                  JOINT LeftHandThumb1
                  {
                    OFFSET 2.276482 -1.392045 3.191413
                    CHANNELS 3 Zrotation Yrotation Xrotation
                    JOINT LeftHandThumb2
                    {
                      OFFSET 4.012836 -1.828127 1.641654
                      CHANNELS 3 Zrotation Yrotation Xrotation
                      JOINT LeftHandThumb3
                      {
                        OFFSET 2.798515 0.0 -3e-06
                        CHANNELS 3 Zrotation Yrotation Xrotation
                        JOINT LeftHandThumbEnd
                        {
                          OFFSET 3.180793 -4e-06 4e-06
                          CHANNELS 3 Zrotation Yrotation Xrotation
                        }
                      }
                    }
                  }
                  JOINT LeftHandIndex1
                  {
                    OFFSET 3.247555 -0.531998 2.296169
                    CHANNELS 3 Zrotation Yrotation Xrotation
                    JOINT LeftHandIndex2
                    {
                      OFFSET 6.364578 0.01206 0.1786
                      CHANNELS 3 Zrotation Yrotation Xrotation
                      JOINT LeftHandIndex3
                      {
                        OFFSET 3.662364 0.0 0.0
                        CHANNELS 3 Zrotation Yrotation Xrotation
                        JOINT LeftHandIndex4
                        {
                          OFFSET 2.329242 4e-06 4e-06
                          CHANNELS 3 Zrotation Yrotation Xrotation
                          JOINT LeftHandIndexEnd
                          {
                            OFFSET 2.759615 -0.180537 -0.113024
                            CHANNELS 3 Zrotation Yrotation Xrotation
                          }
                        }
                      }
                    }
                  }
                  JOINT LeftHandMiddle1
                  {
                    OFFSET 3.163495 0.240981 1.000332
                    CHANNELS 3 Zrotation Yrotation Xrotation
                    JOINT LeftHandMiddle2
                    {
                      OFFSET 6.19078 -0.259278 -1.002548
                      CHANNELS 3 Zrotation Yrotation Xrotation
                      JOINT LeftHandMiddle3
                      {
                        OFFSET 4.35652 -4e-06 -1e-06
                        CHANNELS 3 Zrotation Yrotation Xrotation
                        JOINT LeftHandMiddle4
                        {
                          OFFSET 2.996877 -8e-06 0.0
                          CHANNELS 3 Zrotation Yrotation Xrotation
                          JOINT LeftHandMiddleEnd
                          {
                            OFFSET 2.304287 -0.294569 -0.031741
                            CHANNELS 3 Zrotation Yrotation Xrotation
                          }
                        }
                      }
                    }
                  }
                  JOINT LeftHandRing1
                  {
                    OFFSET 2.882643 -0.053652 -0.322543
                    CHANNELS 3 Zrotation Yrotation Xrotation
                    JOINT LeftHandRing2
                    {
                      OFFSET 5.854541 -0.486202 -1.373841
                      CHANNELS 3 Zrotation Yrotation Xrotation
                      JOINT LeftHandRing3
                      {
                        OFFSET 4.350578 0.0 3e-06
                        CHANNELS 3 Zrotation Yrotation Xrotation
                        JOINT LeftHandRing4
                        {
                          OFFSET 2.651321 7e-06 2e-06
                          CHANNELS 3 Zrotation Yrotation Xrotation
                          JOINT LeftHandRingEnd
                          {
                            OFFSET 1.936105 0.077687 -7.1e-05
                            CHANNELS 3 Zrotation Yrotation Xrotation
                          }
                        }
                      }
                    }
                  }
                  JOINT LeftHandPinky1
                  {
                    OFFSET 2.8655 -0.310005 -1.600378
                    CHANNELS 3 Zrotation Yrotation Xrotation
                    JOINT LeftHandPinky2
                    {
                      OFFSET 5.087849 -1.331141 -1.77123
                      CHANNELS 3 Zrotation Yrotation Xrotation
                      JOINT LeftHandPinky3
                      {
                        OFFSET 3.070974 4e-06 0.0
                        CHANNELS 3 Zrotation Yrotation Xrotation
                        JOINT LeftHandPinky4
                        {
                          OFFSET 1.549672 0.0 1e-06
                          CHANNELS 3 Zrotation Yrotation Xrotation
                          JOINT LeftHandPinkyEnd
                          {
                            OFFSET 1.944893 -0.157802 0.057219
                            CHANNELS 3 Zrotation Yrotation Xrotation
                          }
                        }
                      }
                    }
                  }
                }
              }
            }
          }
          JOINT RightShoulder
          {
            OFFSET -1.380118 23.180309 5.214158
            CHANNELS 3 Zrotation Yrotation Xrotation
            JOINT RightArm
            {
              OFFSET -15.037196 1.2e-05 -5.545604
              CHANNELS 3 Zrotation Yrotation Xrotation
              JOINT RightForeArm
              {
                OFFSET -28.736639 2e-06 -0.002597
                CHANNELS 3 Zrotation Yrotation Xrotation
                JOINT RightHand
                {
                  OFFSET -27.133619 -0.0 0.002613
                  CHANNELS 3 Zrotation Yrotation Xrotation
                  JOINT RightHandThumb1
                  {
                    OFFSET -2.274032 -1.383988 3.163127
                    CHANNELS 3 Zrotation Yrotation Xrotation
                    JOINT RightHandThumb2
                    {
                      OFFSET -4.011429 -1.827466 1.640914
                      CHANNELS 3 Zrotation Yrotation Xrotation
                      JOINT RightHandThumb3
                      {
                        OFFSET -2.794935 -4e-06 -3e-06
                        CHANNELS 3 Zrotation Yrotation Xrotation
                        JOINT RightHandThumbEnd
                        {
                          OFFSET -3.183852 4e-06 1e-06
                          CHANNELS 3 Zrotation Yrotation Xrotation
                        }
                      }
                    }
                  }
                  JOINT RightHandIndex1
                  {
                    OFFSET -3.253266 -0.520057 2.282866
                    CHANNELS 3 Zrotation Yrotation Xrotation
                    JOINT RightHandIndex2
                    {
                      OFFSET -6.341917 0.012471 0.178266
                      CHANNELS 3 Zrotation Yrotation Xrotation
                      JOINT RightHandIndex3
                      {
                        OFFSET -3.654871 -8e-06 -0.0
                        CHANNELS 3 Zrotation Yrotation Xrotation
                        JOINT RightHandIndex4
                        {
                          OFFSET -2.327586 0.0 1e-06
                          CHANNELS 3 Zrotation Yrotation Xrotation
                          JOINT RightHandIndexEnd
                          {
                            OFFSET -2.76179 -0.180656 -0.113078
                            CHANNELS 3 Zrotation Yrotation Xrotation
                          }
                        }
                      }
                    }
                  }
                  JOINT RightHandMiddle1
                  {
                    OFFSET -3.168106 0.246593 1.00103
                    CHANNELS 3 Zrotation Yrotation Xrotation
                    JOINT RightHandMiddle2
                    {
                      OFFSET -6.180828 -0.258836 -1.000895
                      CHANNELS 3 Zrotation Yrotation Xrotation
                      JOINT RightHandMiddle3
                      {
                        OFFSET -4.348901 0.0 -0.0
                        CHANNELS 3 Zrotation Yrotation Xrotation
                        JOINT RightHandMiddle4
                        {
                          OFFSET -3.00024 -4e-06 -2e-06
                          CHANNELS 3 Zrotation Yrotation Xrotation
                          JOINT RightHandMiddleEnd
                          {
                            OFFSET -2.30252 -0.29437 -0.031706
                            CHANNELS 3 Zrotation Yrotation Xrotation
                          }
                        }
                      }
                    }
                  }
                  JOINT RightHandRing1
                  {
                    OFFSET -2.88569 -0.067952 -0.308858
                    CHANNELS 3 Zrotation Yrotation Xrotation
                    JOINT RightHandRing2
                    {
                      OFFSET -5.854198 -0.48613 -1.373731
                      CHANNELS 3 Zrotation Yrotation Xrotation
                      JOINT RightHandRing3
                      {
                        OFFSET -4.33881 -4e-06 -0.0
                        CHANNELS 3 Zrotation Yrotation Xrotation
                        JOINT RightHandRing4
                        {
                          OFFSET -2.654903 -4e-06 4e-06
                          CHANNELS 3 Zrotation Yrotation Xrotation
                          JOINT RightHandRingEnd
                          {
                            OFFSET -1.933568 0.077527 -5.2e-05
                            CHANNELS 3 Zrotation Yrotation Xrotation
                          }
                        }
                      }
                    }
                  }
                  JOINT RightHandPinky1
                  {
                    OFFSET -2.866425 -0.342796 -1.584145
                    CHANNELS 3 Zrotation Yrotation Xrotation
                    JOINT RightHandPinky2
                    {
                      OFFSET -5.091371 -1.332055 -1.772385
                      CHANNELS 3 Zrotation Yrotation Xrotation
                      JOINT RightHandPinky3
                      {
                        OFFSET -3.062664 -4e-06 1e-06
                        CHANNELS 3 Zrotation Yrotation Xrotation
                        JOINT RightHandPinky4
                        {
                          OFFSET -1.546529 4e-06 -2e-06
                          CHANNELS 3 Zrotation Yrotation Xrotation
                          JOINT RightHandPinkyEnd
                          {
                            OFFSET -1.945119 -0.157718 0.057211
                            CHANNELS 3 Zrotation Yrotation Xrotation
                          }
                        }
                      }
                    }
                  }
                }
              }
            }
          }
        }
      }
    }
    JOINT LeftLeg
    {
      OFFSET 10.043214 -8.434526 2.595655
      CHANNELS 3 Zrotation Yrotation Xrotation
      JOINT LeftShin
      {
        OFFSET -1e-06 -43.221752 -0.802913
        CHANNELS 3 Zrotation Yrotation Xrotation
        JOINT LeftFoot
        {
          OFFSET 1e-06 -42.155094 -3.481523
          CHANNELS 3 Zrotation Yrotation Xrotation
          JOINT LeftToeBase
          {
            OFFSET 0.0 -5.059472 13.231529
            CHANNELS 3 Zrotation Yrotation Xrotation
            JOINT LeftToeEnd
            {
              OFFSET -0.009607 -1.647619 6.513017
              CHANNELS 3 Zrotation Yrotation Xrotation
            }
          }
        }
      }
    }
    JOINT RightLeg
    {
      OFFSET -10.047278 -8.29526 2.620317
      CHANNELS 3 Zrotation Yrotation Xrotation
      JOINT RightShin
      {
        OFFSET 1e-06 -43.362206 -0.805556
        CHANNELS 3 Zrotation Yrotation Xrotation
        JOINT RightFoot
        {
          OFFSET 2e-06 -42.117393 -3.478398
          CHANNELS 3 Zrotation Yrotation Xrotation
          JOINT RightToeBase
          {
            OFFSET -0.0 -5.079609 13.284196
            CHANNELS 3 Zrotation Yrotation Xrotation
            JOINT RightToeEnd
            {
              OFFSET 0.009532 -1.634378 6.460591
              CHANNELS 3 Zrotation Yrotation Xrotation
            }
          }
        }
      }
    }
  }
}
MOTION
Frames: 4
Frame Time: 0.03333333333333333
0.0 0.0 0.0 0.0 -0.0 0.0 -2.888417 112.321976 -2.258523 1.453954 1.795484 3.804063 -0.114929 -0.057255 -1.769451 -0.672664 0.091294 -5.672783 -2.793354 -2.628841 4.866772 0.88828 1.848408 -5.305447 -0.75227 0.055711 -3.863413 0.447443 -0.927959 -7.928766 7.7e-05 -2.2e-05 6e-06 -0.044439 -0.182654 0.010985 0.655729 -3.907262 -10.690191 -0.753971 3.547701 -10.654079 4.811199 -5.250184 12.59763 11.558197 9.829568 -39.610966 0.468264 -32.354553 -0.349493 13.099117 -3.722752 -33.631458 -5.882108 9.861285 0.702589 -10.936872 -0.360575 7.156206 1e-06 8.774826 -2e-06 -15.012092 17.828074 7.084973 -1.844031 2.498503 -2.507278 -10.163601 4.678944 4.621109 -20.976023 -1e-06 3e-06 -21.226286 2.451695 -3.593999 -0.0 -7e-06 -1e-06 -1.362681 2.2408 -0.746324 -21.334917 0.584908 3.008324 -13.821213 -1e-06 1e-06 -23.887171 -0.249079 -0.839482 -60.009701 2.344453 -0.664003 -0.294024 1.67969 0.833255 -14.21821 0.093217 1.30058 -34.212051 -0.287564 0.967172 -20.033213 0.964538 1.212843 -0.0 -0.0 1e-06 -3.440389 0.788233 0.501655 -15.928187 -3.167308 2.999707 -6.338829 -2e-06 0.0 -18.123447 3.648184 -4.905672 -5e-06 1e-06 -2e-06 -2.426625 6.614249 13.201962 -9.581319 -10.264522 -37.829506 -1.396289 39.905151 0.84713 -12.901545 -6.085503 -53.984844 2.243541 -5.255033 -3.180156 14.282885 -0.826596 6.952502 -1e-06 -12.690598 0.0 15.834674 -17.160521 2.102817 1.665665 -1.95592 -2.878298 4.727798 -4.170584 4.993924 11.020523 4e-06 -0.0 12.10905 -3.735713 -2.866782 1e-06 -0.0 -1e-06 1.291986 -1.92855 -1.498088 14.800122 0.567468 3.865608 14.242567 -1.341736 -6.660656 19.631958 0.143923 -0.648245 49.944286 -0.619348 -6.269201 0.353027 -1.51115 -0.03194 20.222786 3.684307 2.31663 18.78727 4e-06 -0.0 10.751624 -0.47987 1.397904 1e-06 0.0 -1e-06 3.273805 0.305945 -0.580111 21.486803 11.830368 2.266134 8.162924 1e-06 0.0 18.399075 -3.798985 -4.940571 2e-06 0.0 1e-06 7.792188 1.29412 -4.456192 -0.00918 -0.656603 11.242274 -11.163794 3.138806 24.415913 1.747144 -1.933815 -4.54076 0.0 0.0 2e-06 -11.38362 -6.405426 -7.006351 -0.315459 0.474272 18.655088 11.667793 -12.559088 21.529282 -1.452808 0.922074 -4.037526 0.0 0.0 -3e-06 
0.0 0.0 0.0 0.0 -0.0 0.0 -2.867425 112.863602 -2.318972 1.379391 1.594305 4.196074 -0.115551 -0.090992 -1.337746 -0.609209 0.155987 -5.529371 -2.633919 -2.608855 4.921071 0.723522 2.063154 -6.095062 -0.694391 0.118734 -3.860064 0.373154 -0.76525 -8.549018 7.7e-05 -2.2e-05 6e-06 -0.037321 -0.175637 -0.003054 0.652722 -3.890885 -10.676468 -0.735987 3.547069 -10.632506 3.93007 -4.858915 12.654878 2.383993 8.135368 -37.70068 0.867172 -29.971745 -0.3991 13.201921 -4.194567 -33.087372 -5.882108 9.861286 0.70259 -10.93687 -0.360575 7.156204 -1e-06 8.774824 -1e-06 -14.990191 18.000589 7.101528 -1.844032 2.498505 -2.507277 -10.163601 4.678946 4.62111 -20.976023 -1e-06 4e-06 -21.226286 2.4517 -3.594 -1e-06 -8e-06 -1e-06 -1.362682 2.240796 -0.746323 -21.334913 0.584911 3.008325 -13.821213 -2e-06 2e-06 -23.887167 -0.249077 -0.839483 -59.907486 2.351309 -0.733615 -0.294025 1.679687 0.833257 -14.218208 0.093215 1.300581 -34.212048 -0.28756 0.967171 -20.033213 0.96454 1.212842 0.0 0.0 -0.0 -3.440388 0.788234 0.501656 -15.928185 -3.167309 2.999708 -6.338825 1e-06 1e-06 -18.123446 3.648185 -4.90567 -5e-06 -1e-06 -1e-06 0.246366 6.4393 14.100584 -1.296508 -10.247947 -36.342678 -2.459787 36.391426 0.477717 -12.751195 -5.581689 -53.777161 2.243541 -5.255037 -3.180156 14.28289 -0.826595 6.952505 -1e-06 -12.690603 2e-06 15.179433 -16.992277 2.388473 1.665666 -1.955922 -2.878299 4.727798 -4.170588 4.993925 11.020525 2e-06 0.0 12.109052 -3.735718 -2.866783 4e-06 1e-06 0.0 1.291986 -1.928549 -1.498088 14.800127 0.567467 3.865609 14.242569 -1.341738 -6.660657 19.631969 0.143925 -0.648244 49.869671 -0.404227 -6.158248 0.353029 -1.511152 -0.03194 20.222788 3.684309 2.31663 18.78727 2e-06 0.0 10.751625 -0.479869 1.397906 1e-06 -0.0 -1e-06 3.273807 0.305946 -0.580111 21.486813 11.830373 2.266136 8.162926 0.0 -1e-06 18.39908 -3.798986 -4.940575 3e-06 -0.0 -2e-06 5.293045 -0.119795 -4.820802 0.054436 -0.594691 9.403021 -12.844213 1.471966 23.659931 1.722261 -1.907704 -4.527425 -0.0 -0.0 1e-06 -8.852797 -6.525334 -8.020493 -0.272448 0.383909 18.973314 13.565557 -10.840887 17.952251 -1.46175 0.979318 -4.031402 -0.0 0.0 -2e-06 
0.0 0.0 0.0 0.0 -0.0 0.0 -2.937203 112.421478 -2.368967 1.166304 1.297754 4.577802 0.075369 -0.058224 -1.052618 -0.557428 0.219544 -5.442008 -2.437245 -2.550615 5.041143 0.28811 2.26021 -6.761681 -0.596267 0.346586 -3.810325 0.221971 -0.703573 -9.109703 7.7e-05 -2.2e-05 5e-06 -0.0253 -0.139175 0.000764 0.655302 -3.849176 -10.655184 -0.713603 3.576493 -10.605285 2.56706 -4.59184 12.853273 -6.684839 5.93448 -36.448738 0.972267 -27.861074 -0.42775 12.672637 -4.028568 -33.419556 -5.88211 9.861293 0.702592 -10.936877 -0.360574 7.156212 -1e-06 8.774829 -1e-06 -15.105114 18.265841 7.016492 -1.844033 2.498507 -2.507279 -10.163605 4.67895 4.621113 -20.976028 2e-06 3e-06 -21.226292 2.451703 -3.594003 0.0 -6e-06 1e-06 -1.362682 2.240799 -0.746324 -21.334921 0.584914 3.008328 -13.821217 2e-06 2e-06 -23.887178 -0.249072 -0.839487 -59.798855 2.582337 -0.786474 -0.294024 1.679687 0.833255 -14.218214 0.093218 1.300583 -34.212055 -0.287554 0.967172 -20.03322 0.964543 1.212842 0.0 1e-06 2e-06 -3.44039 0.788234 0.501657 -15.928192 -3.167306 2.999711 -6.338829 1e-06 1e-06 -18.123453 3.648191 -4.905674 -4e-06 -0.0 -3e-06 2.892493 6.52874 14.962176 6.640389 -9.443398 -35.372181 -2.257802 33.470707 0.256307 -12.233868 -5.164713 -53.643677 2.243543 -5.255041 -3.180161 14.282896 -0.826597 6.952508 2e-06 -12.69061 -0.0 14.814643 -16.988831 2.6689 1.665667 -1.955923 -2.878301 4.727801 -4.170591 4.993928 11.020531 2e-06 -1e-06 12.109055 -3.735719 -2.866785 1e-06 1e-06 0.0 1.291986 -1.928549 -1.49809 14.800132 0.567465 3.865612 14.242579 -1.341739 -6.660663 19.631973 0.143922 -0.648247 49.875393 -0.398633 -6.017845 0.35303 -1.51115 -0.031939 20.222801 3.684309 2.316635 18.787285 0.0 -0.0 10.751633 -0.479871 1.397906 0.0 0.0 1e-06 3.273808 0.305946 -0.580111 21.48682 11.830378 2.266137 8.16293 1e-06 -1e-06 18.399092 -3.79899 -4.940577 3e-06 -0.0 -1e-06 3.349993 -1.142429 -5.318134 0.085119 -0.562221 8.197666 -14.988442 -0.207908 24.301311 1.704131 -1.907018 -4.798647 -0.0 0.0 2e-06 -6.257953 -5.905153 -8.738582 -0.208781 0.2786 18.572998 14.452571 -8.857615 14.939033 -1.465794 1.017839 -4.104484 0.0 -0.0 -1e-06 
0.0 0.0 0.0 0.0 -0.0 0.0 -3.050749 111.049927 -2.409568 0.794349 1.160612 4.987534 0.397773 0.055091 -0.961459 -0.499629 0.227803 -5.369738 -2.172698 -2.412374 5.201588 -0.289047 2.332401 -7.347758 -0.445876 0.703001 -3.723549 -0.028175 -0.815556 -9.630707 7.7e-05 -2.3e-05 6e-06 -0.00441 -0.053094 0.021058 0.658724 -3.770346 -10.660845 -0.674593 3.664444 -10.602809 0.743748 -4.491883 13.312211 -15.392694 3.385791 -35.151211 0.471826 -26.549913 -0.289682 11.253939 -3.716349 -34.865589 -5.882108 9.861286 0.702595 -10.936874 -0.360572 7.15621 -1e-06 8.774826 1e-06 -14.998705 18.558079 6.966996 -1.844031 2.498505 -2.507278 -10.163604 4.678948 4.621115 -20.97603 -0.0 3e-06 -21.226292 2.451698 -3.593999 1e-06 -5e-06 -1e-06 -1.362682 2.240798 -0.746323 -21.334917 0.584917 3.008328 -13.821217 2e-06 4e-06 -23.887177 -0.249074 -0.839483 -59.546703 2.854262 -0.884988 -0.294025 1.679688 0.833258 -14.218214 0.093217 1.300585 -34.212055 -0.287554 0.967172 -20.03322 0.964542 1.212842 -0.0 -0.0 0.0 -3.440389 0.788234 0.501659 -15.928192 -3.167308 2.999711 -6.338828 1e-06 2e-06 -18.123451 3.648188 -4.905669 -5e-06 -1e-06 -3e-06 5.847327 6.611085 15.837757 14.282713 -8.062637 -34.020607 -1.81016 31.461248 -0.086559 -10.54501 -4.916773 -53.405258 2.243541 -5.255036 -3.180158 14.282889 -0.826595 6.952505 -2e-06 -12.690603 4e-06 14.802712 -17.203358 2.934515 1.665666 -1.955922 -2.8783 4.7278 -4.170588 4.993925 11.020527 3e-06 -1e-06 12.109055 -3.735715 -2.866785 2e-06 -0.0 1e-06 1.291986 -1.928549 -1.498089 14.800127 0.567467 3.86561 14.242569 -1.341736 -6.660658 19.631968 0.143926 -0.648245 49.862492 -0.653309 -5.891488 0.353029 -1.511151 -0.031939 20.222794 3.684309 2.316632 18.787273 4e-06 0.0 10.751625 -0.479871 1.397907 0.0 0.0 -0.0 3.273808 0.305947 -0.580111 21.486813 11.830373 2.266132 8.162927 0.0 2e-06 18.399082 -3.798988 -4.940574 2e-06 -0.0 -1e-06 2.087897 -1.85289 -6.347142 0.094011 -0.569473 8.441941 -17.153522 -2.180972 25.45388 1.689188 -1.889419 -5.350301 -0.0 0.0 2e-06 -3.648848 -4.563733 -9.126082 -0.159946 0.165695 17.478508 14.551493 -6.856829 12.760642 -1.466575 1.050692 -4.227668 0.0 0.0 -1e-06 
